
Genre:Action | Adventure | Drama
Language:English
 
http://www.imdb.com/title/tt0881320/

Source:ELEKTRI4KA/T0XiC-iNK Thx.


Format : MPEG-4
Format profile : Base Media
Codec ID : isom
File size : 1 016 MiB
Duration : 1h 44mn
Overall bit rate : 1 361 Kbps
Movie name : Sanctum.2011.R5.LiNE.x264.Feel-Free


Video
Format settings, CABAC : Yes
Format settings, ReFrames : 4 frames
Format settings, GOP : M=4, N=16
Codec ID : avc1
Codec ID/Info : Advanced Video Coding
Duration : 1h 44mn
Bit rate mode : Variable
Bit rate : 968 Kbps
Width : 720 pixels
Height : 384 pixels
Display aspect ratio : 1.875
Frame rate mode : Constant
Frame rate : 25.000 fps
Color space : YUV
Chroma subsampling : 4:2:0
Bit depth : 8 bits
Scan type : Progressive
Bits/(Pixel*Frame) : 0.140
Stream size : 725 MiB (71%)
Writing library : x264

Audio
ID : 2
Format : AAC
Format/Info : Advanced Audio Codec
Format version : Version 4
Format profile : LC
Codec ID : 40
Duration : 1h 44mn
Bit rate mode : Variable
Bit rate : 384 Kbps
Channel(s) : 6 channels
Channel positions : Front: L C R, Side: L R, LFE
Sampling rate : 48.0 KHz
Stream size : 287 MiB (28%)





Plot:
An underwater cave diving team experiences a life-threatening crisis during an expedition to the unexplored and least accessible cave system in the world.
 
http://www.postimg.com/29000/28827.jpg
 
http://www.postimg.com/29000/28828.jpg
 
http://www.postimg.com/29000/28829.jpg
 
http://www.postimg.com/29000/28832.jpg
 
http://www.postimg.com/29000/28830.jpg
 
http://www.postimg.com/29000/28831.jpg